# xmcd CD database file
#
# Track frame offsets:
#	150
#	14570
#	28244
#	42479
#	56305
#	70518
#	83307
#	95624
#	108668
#	121570
#	134716
#	147499
#	159754
#	172781
#	186645
#	199437
#	211448
#	223633
#	237131
#	250139
#	262181
#	274683
#	288155
#
# Disc length: 4018 seconds
#
# Revision: 0
# Processed by: cddbd v1.4PL0 Copyright (c) Steve Scherf et al.
# Submitted via: CDex 1.51
#
DISCID=550fb017
DTITLE=T-Bone Walker - On Your Way - 1947 Recordings
DYEAR=2000
DGENRE=Blues
TTITLE0=Born To Be No Good
TTITLE1=Call It Stormy Monday
TTITLE2=First Love Blues
TTITLE3=Go Back To The One You Love
TTITLE4=Goodbye Blues
TTITLE5=Hypin' Woman Blues
TTITLE6=I Know Your Wig Is Gone
TTITLE7=I Wish You Were Mine
TTITLE8=It's A Low Down Dirty Deal
TTITLE9=Long Lost Lover Blues
TTITLE10=Long Skirt Baby Blues
TTITLE11=Midnight Blues
TTITLE12=On Your Way Blues
TTITLE13=Plain Old Down Home Blues
TTITLE14=Prison Blues
TTITLE15=She's My Old Time Used To Be
TTITLE16=T-Bone Jumps Again
TTITLE17=T-Bone Shuffle
TTITLE18=That Old Feeling Is Gone
TTITLE19=Too Much Trouble Blues
TTITLE20=West Side Baby
TTITLE21=Wise Man Blues
TTITLE22=You're My Best Poker Hand
EXTD=YEAR: 2000
EXTT0=
EXTT1=
EXTT2=
EXTT3=
EXTT4=
EXTT5=
EXTT6=
EXTT7=
EXTT8=
EXTT9=
EXTT10=
EXTT11=
EXTT12=
EXTT13=
EXTT14=
EXTT15=
EXTT16=
EXTT17=
EXTT18=
EXTT19=
EXTT20=
EXTT21=
EXTT22=
PLAYORDER=
